<?xml version="1.0" encoding="UTF-8"?>
<svg version="1.1" xmlns="http://www.w3.org/2000/svg" width="1266" height="634">
<path d="M0 0 C17.49 0 34.98 0 53 0 C55.64 5.28 58.28 10.56 61 16 C62.14082031 18.27003906 63.28164062 20.54007812 64.45703125 22.87890625 C71.80580004 37.50758274 79.00626941 52.1973985 86 67 C88.30472146 63.54291781 90.11457524 59.91359727 91.96484375 56.203125 C92.35443268 55.4252211 92.74402161 54.6473172 93.14541626 53.84584045 C94.41172632 51.31502714 95.67476338 48.78259792 96.9375 46.25 C97.36529755 45.39385101 97.79309509 44.53770203 98.2338562 43.65560913 C103.89349151 32.32769663 109.49269555 20.97680596 114.87670898 9.51464844 C115.26930908 8.68094727 115.66190918 7.84724609 116.06640625 6.98828125 C116.39584229 6.28227783 116.72527832 5.57627441 117.06469727 4.84887695 C118 3 118 3 120 0 C137.49 0 154.98 0 173 0 C173 46.53 173 93.06 173 141 C155.51 141 138.02 141 120 141 C119.67 119.55 119.34 98.1 119 76 C114.38 85.57 109.76 95.14 105 105 C101.87770488 111.43883441 98.75410983 117.87698341 95.625 124.3125 C94.86975719 125.8665197 94.11454897 127.42055622 93.359375 128.97460938 C91.57330839 132.64993012 89.78679885 136.32503519 88 140 C87.01 140 86.02 140 85 140 C75.86196341 121.82855469 66.74397857 103.65698364 58.08056641 85.25292969 C56.75340783 82.48586703 55.37244203 79.74488406 54 77 C53.67 98.12 53.34 119.24 53 141 C35.51 141 18.02 141 0 141 C0 94.47 0 47.94 0 0 Z " fill="#FFFFFF" transform="translate(140,353)"/>
<path d="M0 0 C30.69 0 61.38 0 93 0 C97.19919826 13.19748025 101.34329141 26.34082353 105.109375 39.65625 C105.56594349 41.26022306 106.02284193 42.86410222 106.4800415 44.46789551 C107.66890167 48.64107901 108.85391509 52.81534377 110.0378418 56.9899292 C111.90784536 63.58093851 113.78422723 70.17013606 115.65983582 76.759552 C116.35664897 79.20916677 117.0522396 81.65912625 117.74768066 84.10913086 C120.18347341 92.68157351 122.648547 101.24460324 125.15429688 109.796875 C125.67012829 111.56155731 126.18593673 113.32624634 126.70172119 115.09094238 C127.68219951 118.44454243 128.66970011 121.79596862 129.66107178 125.1463623 C130.10405108 126.65935047 130.54679295 128.17240818 130.98925781 129.68554688 C131.29655949 130.7131311 131.29655949 130.7131311 131.61006927 131.76147461 C132.56057683 135.0330409 133 137.54913307 133 141 C115.51 141 98.02 141 80 141 C74 121 74 121 74 118 C55.85 118 37.7 118 19 118 C18.34 121.3 17.68 124.6 17 128 C15.68 132.29 14.36 136.58 13 141 C-4.49 141 -21.98 141 -40 141 C-38.71324032 134.5662016 -37.37574664 128.38359154 -35.56079102 122.11425781 C-35.20646751 120.87226372 -35.20646751 120.87226372 -34.84498596 119.60517883 C-34.06841567 116.88672678 -33.28621843 114.16992969 -32.50390625 111.453125 C-31.94985892 109.51830366 -31.39614998 107.5833854 -30.84275818 105.64837646 C-29.38246723 100.54595355 -27.91733128 95.44493403 -26.45123291 90.34417725 C-25.00147352 85.29675245 -23.5566956 80.24790256 -22.11132812 75.19921875 C-19.02332795 64.41704433 -15.92540478 53.63774124 -12.82297516 42.85971069 C-11.99778474 39.99230231 -11.17324116 37.12470855 -10.34881592 34.25708008 C-9.04886782 29.73627975 -7.74673468 25.21611453 -6.44279289 20.69646454 C-5.96120145 19.02626444 -5.48024076 17.35588233 -4.99994087 15.68531036 C-4.34419114 13.40522403 -3.68599448 11.1258588 -3.02709961 8.84667969 C-2.8347492 8.1759568 -2.6423988 7.50523392 -2.44421959 6.8141861 C-1.75791865 4.44780421 -1.10448412 2.20896824 0 0 Z M46 24 C43.98088551 30.91144948 41.96370055 37.82345921 39.94882584 44.73614597 C39.01268941 47.94765463 38.0757572 51.15892592 37.13769531 54.36987305 C36.05370234 58.08074232 34.97196754 61.79226389 33.890625 65.50390625 C33.56128967 66.62954483 33.23195435 67.75518341 32.89263916 68.91493225 C30.4676839 77.25000056 28.23827108 85.60648347 26 94 C39.53 94 53.06 94 67 94 C60.84188775 70.5132463 53.94304552 47.26460594 47 24 C46.67 24 46.34 24 46 24 Z " fill="#FFFFFF" transform="translate(369,353)"/>
<path d="M0 0 C18.27375 -0.0825 36.5475 -0.165 55.375 -0.25 C64.00922119 -0.30462402 64.00922119 -0.30462402 72.81787109 -0.36035156 C79.88208008 -0.37841797 79.88208008 -0.37841797 83.19595337 -0.3817749 C85.49554546 -0.38789112 87.79512524 -0.40190513 90.09463501 -0.42230225 C93.59114648 -0.45174917 97.08687848 -0.45561848 100.58349609 -0.45410156 C101.5967716 -0.468494 102.61004711 -0.48288643 103.65402794 -0.497715 C114.3440048 -0.4359853 123.43851801 3.38068641 131 11 C138.39021862 20.98549882 140.14050725 30.78464756 139 43 C137.37723221 51.74552038 132.75808791 58.31367934 126 64 C122.12257915 66.33203823 118.1749672 68.26219639 114 70 C114.70125 70.3403125 115.4025 70.680625 116.125 71.03125 C127.90407706 77.04882197 134.79038729 84.37116186 139 97 C139.08630926 98.45781722 139.11770981 99.91927474 139.11352539 101.37963867 C139.11340454 102.27259644 139.11328369 103.1655542 139.11315918 104.08557129 C139.10804321 105.02026245 139.10292725 105.95495361 139.09765625 106.91796875 C139.09664917 107.77990845 139.09564209 108.64184814 139.09460449 109.52990723 C139.08937322 112.74911835 139.07541195 115.96831052 139.0625 119.1875 C139.041875 126.385625 139.02125 133.58375 139 141 C121.84 141 104.68 141 87 141 C86.75 121 86.75 121 86.70214844 114.734375 C86.67275 113.07288896 86.64191912 111.4114274 86.609375 109.75 C86.60768311 108.48349609 86.60768311 108.48349609 86.60595703 107.19140625 C86.44486959 100.43359179 84.68838815 95.17941795 80.2890625 89.9765625 C79.73992187 89.53054688 79.19078125 89.08453125 78.625 88.625 C78.08101562 88.16351563 77.53703125 87.70203125 76.9765625 87.2265625 C69.70348639 82.71323068 62.66265843 83.57751056 54 83 C54 102.14 54 121.28 54 141 C36.18 141 18.36 141 0 141 C0 94.47 0 47.94 0 0 Z M54 17 C54 30.53 54 44.06 54 58 C68.36613846 58.52591557 68.36613846 58.52591557 80.09765625 52.12890625 C85.70683059 46.03598381 87.48982423 40.90900341 87.3125 32.65234375 C86.69290237 27.39350883 83.80983138 24.77462132 80.125 21.25 C71.60216857 15.11356137 65.18728774 17 54 17 Z " fill="#FFFFFF" transform="translate(830,353)"/>
<path d="M0 0 C45.87 0 91.74 0 139 0 C139 7.92 139 15.84 139 24 C110.62 24 82.24 24 53 24 C53 35.22 53 46.44 53 58 C81.38 58 109.76 58 139 58 C139 65.92 139 73.84 139 82 C110.62 82 82.24 82 53 82 C53 93.55 53 105.1 53 117 C81.38 117 109.76 117 139 117 C139 124.92 139 132.84 139 141 C93.13 141 47.26 141 0 141 C0 94.47 0 47.94 0 0 Z " fill="#FFFFFF" transform="translate(988,353)"/>
<path d="M0 0 C17.428125 -0.0825 34.85625 -0.165 52.8125 -0.25 C61.04151245 -0.30462402 61.04151245 -0.30462402 69.43676758 -0.36035156 C76.17907715 -0.37841797 76.17907715 -0.37841797 79.34379578 -0.3817749 C81.53584549 -0.38788368 83.72788247 -0.40188197 85.91984558 -0.42230225 C89.25644989 -0.45180962 92.59223882 -0.45561651 95.92895508 -0.45410156 C96.89179067 -0.468494 97.85462626 -0.48288643 98.84663868 -0.497715 C109.88102593 -0.43116445 119.03665489 3.3678337 127 11 C136.27922253 21.05095985 139.35176109 30.9286113 139.2109375 44.43359375 C138.54248696 55.73535933 133.32869371 65.15097926 125.1875 72.875 C114.67310626 81.78630232 102.94415653 83.33468868 89.5234375 83.1953125 C88.12315308 83.19229126 88.12315308 83.19229126 86.69458008 83.18920898 C83.25466904 83.17885708 79.81482884 83.15093585 76.375 83.125 C64.804375 83.063125 64.804375 83.063125 53 83 C53 102.14 53 121.28 53 141 C35.51 141 18.02 141 0 141 C0 94.47 0 47.94 0 0 Z M54 17 C54 30.53 54 44.06 54 58 C67.97409193 58.41120223 67.97409193 58.41120223 79.25 52.75 C84.44276653 47.55723347 86.77983394 42.41257393 87.25 35.125 C87.15134127 30.28175332 85.83741214 26.9394906 82.453125 23.3671875 C73.76398948 15.40855452 66.49614464 17 54 17 Z " fill="#FFFFFF" transform="translate(518,353)"/>
<path d="M0 0 C45.87 0 91.74 0 139 0 C139 7.92 139 15.84 139 24 C110.62 24 82.24 24 53 24 C53 35.22 53 46.44 53 58 C81.38 58 109.76 58 139 58 C139 65.92 139 73.84 139 82 C110.62 82 82.24 82 53 82 C53 101.47 53 120.94 53 141 C35.51 141 18.02 141 0 141 C0 94.47 0 47.94 0 0 Z " fill="#FFFFFF" transform="translate(674,353)"/>
<path d="M0 0 C12.93097199 11.72102019 23.00526243 27.87414893 24.26904297 45.59790039 C25.29982364 66.88222816 21.47771974 86.26255899 6.83886719 102.44604492 C-6.50655361 116.44206656 -22.56413659 124.7053746 -41.91113281 126.07104492 C-42.6471875 126.12518555 -43.38324219 126.17932617 -44.14160156 126.23510742 C-63.57825524 126.95136602 -82.70696896 119.22738626 -96.94238281 106.12963867 C-111.62271395 90.77937179 -118.31229176 72.03911919 -118.12597656 51.04760742 C-117.06908198 31.48544956 -108.31121366 14.14895009 -94.14550781 0.86791992 C-68.00374824 -22.42890814 -26.56948323 -22.72865657 0 0 Z M-97.02832031 15.61010742 C-107.717329 30.06091316 -112.20183843 47.31480813 -109.61816406 65.08618164 C-106.41122344 82.29762504 -96.91492066 96.70051031 -82.91113281 107.00854492 C-68.80601356 116.13800006 -52.61527333 120.51908605 -35.89160156 117.37963867 C-18.54323685 113.65962381 -3.7203418 104.907246 6.34277344 89.96948242 C15.85664552 74.17688043 19.33580478 57.8161584 15.33105469 39.62963867 C10.21552881 21.42438481 -0.61744275 7.57845559 -17.07910156 -1.71801758 C-45.55555948 -15.80016364 -76.98265935 -8.42989188 -97.02832031 15.61010742 Z " fill="#FFFFFF" transform="translate(679.9111328125,155.928955078125)"/>
<path d="M0 0 C1.41796875 1.3203125 1.41796875 1.3203125 3.29296875 3.7578125 C3.29296875 4.4178125 3.29296875 5.0778125 3.29296875 5.7578125 C4.59234375 5.6340625 4.59234375 5.6340625 5.91796875 5.5078125 C10.08647631 5.81659084 12.35343798 6.91603334 15.29296875 9.7578125 C22.56231253 18.38410045 27.01997042 25.83119632 26.71875 37.26171875 C26.29296875 39.7578125 26.29296875 39.7578125 23.98046875 42.8828125 C19.4937631 46.01307225 15.61324584 45.89172715 10.34375 45.85546875 C9.57113327 45.8540538 8.79851654 45.85263885 8.00248718 45.85118103 C5.53677486 45.84558716 3.0711536 45.83303583 0.60546875 45.8203125 C-1.06705598 45.81529671 -2.73958213 45.81073394 -4.41210938 45.80664062 C-8.51047991 45.79647097 -12.60865373 45.77689444 -16.70703125 45.7578125 C-16.70703125 52.6878125 -16.70703125 59.6178125 -16.70703125 66.7578125 C-19.34703125 66.7578125 -21.98703125 66.7578125 -24.70703125 66.7578125 C-24.70703125 59.8278125 -24.70703125 52.8978125 -24.70703125 45.7578125 C-27.16398438 45.80421875 -29.6209375 45.850625 -32.15234375 45.8984375 C-34.54522641 45.92967739 -36.93808591 45.95393976 -39.33105469 45.97753906 C-40.9877345 45.99759259 -42.64434407 46.02484279 -44.30078125 46.05957031 C-46.68897883 46.10836762 -49.07623672 46.13084314 -51.46484375 46.1484375 C-52.56676559 46.17940521 -52.56676559 46.17940521 -53.69094849 46.21099854 C-58.85564012 46.21322678 -61.72306764 44.99492481 -65.70703125 41.7578125 C-67.73606318 39.0831795 -68.2037964 36.35462129 -68.07421875 33 C-66.42887284 22.95288774 -61.63319965 14.16565643 -53.70703125 7.7578125 C-51.37079681 6.71864329 -49.16853344 6.05877688 -46.6875 5.4609375 C-44.32079615 4.81411533 -44.32079615 4.81411533 -42.26953125 1.7578125 C-34.11096762 -7.79367663 -9.78079303 -7.11737342 0 0 Z M-35.70703125 6.7578125 C-36.9333113 9.92730113 -36.88033442 11.33550835 -35.58300781 14.49682617 C-35.0103418 15.46338135 -34.43767578 16.42993652 -33.84765625 17.42578125 C-33.22632813 18.48345703 -32.605 19.54113281 -31.96484375 20.63085938 C-31.30226563 21.72462891 -30.6396875 22.81839844 -29.95703125 23.9453125 C-29.30992187 25.05068359 -28.6628125 26.15605469 -27.99609375 27.29492188 C-24.65894149 33.25854739 -24.65894149 33.25854739 -19.70703125 37.7578125 C-17.52466644 34.13538383 -15.34703358 30.51034109 -13.1796875 26.87890625 C-11.64775282 24.31454188 -10.09583075 21.76533673 -8.515625 19.23046875 C-7.55849609 17.66619141 -7.55849609 17.66619141 -6.58203125 16.0703125 C-6.00195312 15.13832031 -5.421875 14.20632812 -4.82421875 13.24609375 C-3.52953605 10.8732131 -3.52953605 10.8732131 -3.83203125 8.53515625 C-4.68260962 6.38358082 -4.68260962 6.38358082 -7.83203125 5.0078125 C-16.46488571 2.1717484 -27.75441277 2.14529378 -35.70703125 6.7578125 Z M-49.48828125 14.91015625 C-55.38087225 21.03041554 -59.35733749 27.01546857 -59.70703125 35.7578125 C-57.87811748 38.01396276 -57.87811748 38.01396276 -55.18505859 37.98486328 C-54.14816895 37.97438965 -53.1112793 37.96391602 -52.04296875 37.953125 C-50.36074219 37.94345703 -50.36074219 37.94345703 -48.64453125 37.93359375 C-47.46890625 37.91683594 -46.29328125 37.90007812 -45.08203125 37.8828125 C-43.89867187 37.87378906 -42.7153125 37.86476563 -41.49609375 37.85546875 C-38.56620602 37.83184062 -35.63671785 37.79889764 -32.70703125 37.7578125 C-32.70703125 32.17366402 -35.19275595 28.80756292 -37.95703125 24.0703125 C-38.44816406 23.19052734 -38.93929687 22.31074219 -39.4453125 21.40429688 C-40.17041016 20.15036133 -40.17041016 20.15036133 -40.91015625 18.87109375 C-41.35004883 18.10579346 -41.78994141 17.34049316 -42.24316406 16.55200195 C-43.58322952 14.61452192 -43.58322952 14.61452192 -45.77050781 13.92871094 C-47.78720144 13.5507364 -47.78720144 13.5507364 -49.48828125 14.91015625 Z M3.29296875 13.7578125 C1.506218 15.77999126 1.506218 15.77999126 0.0234375 18.5 C-0.8437793 19.97533203 -0.8437793 19.97533203 -1.72851562 21.48046875 C-2.31955078 22.52074219 -2.91058594 23.56101563 -3.51953125 24.6328125 C-4.43508789 26.18162109 -4.43508789 26.18162109 -5.36914062 27.76171875 C-7.67448184 31.68933669 -7.67448184 31.68933669 -9.70703125 35.7578125 C-9.37703125 36.4178125 -9.04703125 37.0778125 -8.70703125 37.7578125 C-4.58204587 37.78673635 -0.4570864 37.80458517 3.66796875 37.8203125 C4.84359375 37.82869141 6.01921875 37.83707031 7.23046875 37.84570312 C8.35195313 37.84892578 9.4734375 37.85214844 10.62890625 37.85546875 C11.6657959 37.86070557 12.70268555 37.86594238 13.77099609 37.87133789 C16.28893555 37.92922065 16.28893555 37.92922065 18.29296875 36.7578125 C18.01147835 28.03161025 14.97446278 22.08854796 9.34375 15.46484375 C7.22529282 13.33131096 7.22529282 13.33131096 3.29296875 13.7578125 Z " fill="#FFFFFF" transform="translate(653.70703125,179.2421875)"/>
</svg>
